<mxfile host="app.diagrams.net" modified="2023-08-21T19:03:30.189Z" agent="Mozilla/5.0 (Macintosh; Intel Mac OS X 10_15_7) AppleWebKit/537.36 (KHTML, like Gecko) Chrome/115.0.0.0 Safari/537.36" version="21.6.8" etag="e15JTKcJWAEgTfcw_0hO" type="github">
  <diagram id="R2lEEEUBdFMjLlhIrx00" name="Page-1">
    <mxGraphModel dx="823" dy="1103" grid="0" gridSize="10" guides="1" tooltips="1" connect="1" arrows="1" fold="1" page="0" pageScale="1" pageWidth="850" pageHeight="1100" math="0" shadow="0" extFonts="Permanent Marker^https://fonts.googleapis.com/css?family=Permanent+Marker">
      <root>
        <mxCell id="0" />
        <mxCell id="1" parent="0" />
        <mxCell id="C-vyLk0tnHw3VtMMgP7b-2" value="credits" style="shape=table;startSize=30;container=1;collapsible=1;childLayout=tableLayout;fixedRows=1;rowLines=0;fontStyle=1;align=center;resizeLast=1;fillColor=#1ba1e2;strokeColor=#006EAF;fontColor=#ffffff;" parent="1" vertex="1">
          <mxGeometry x="820" y="52" width="240" height="154" as="geometry" />
        </mxCell>
        <mxCell id="C-vyLk0tnHw3VtMMgP7b-3" value="" style="shape=partialRectangle;collapsible=0;dropTarget=0;pointerEvents=0;points=[[0,0.5],[1,0.5]];portConstraint=eastwest;top=0;left=0;right=0;bottom=1;" parent="C-vyLk0tnHw3VtMMgP7b-2" vertex="1">
          <mxGeometry y="30" width="240" height="30" as="geometry" />
        </mxCell>
        <mxCell id="C-vyLk0tnHw3VtMMgP7b-4" value="PK" style="shape=partialRectangle;overflow=hidden;connectable=0;top=0;left=0;bottom=0;right=0;fontStyle=1;" parent="C-vyLk0tnHw3VtMMgP7b-3" vertex="1">
          <mxGeometry width="31.75" height="30" as="geometry">
            <mxRectangle width="31.75" height="30" as="alternateBounds" />
          </mxGeometry>
        </mxCell>
        <mxCell id="C-vyLk0tnHw3VtMMgP7b-5" value="person_id" style="shape=partialRectangle;overflow=hidden;connectable=0;top=0;left=0;bottom=0;right=0;align=left;spacingLeft=6;fontStyle=5;" parent="C-vyLk0tnHw3VtMMgP7b-3" vertex="1">
          <mxGeometry x="31.75" width="208.25" height="30" as="geometry">
            <mxRectangle width="208.25" height="30" as="alternateBounds" />
          </mxGeometry>
        </mxCell>
        <mxCell id="27" style="shape=partialRectangle;collapsible=0;dropTarget=0;pointerEvents=0;points=[[0,0.5],[1,0.5]];portConstraint=eastwest;top=0;left=0;right=0;bottom=0;" parent="C-vyLk0tnHw3VtMMgP7b-2" vertex="1">
          <mxGeometry y="60" width="240" height="28" as="geometry" />
        </mxCell>
        <mxCell id="28" value="FK" style="shape=partialRectangle;overflow=hidden;connectable=0;top=0;left=0;bottom=0;right=0;" parent="27" vertex="1">
          <mxGeometry width="31.75" height="28" as="geometry">
            <mxRectangle width="31.75" height="28" as="alternateBounds" />
          </mxGeometry>
        </mxCell>
        <mxCell id="29" value="title_id" style="shape=partialRectangle;overflow=hidden;connectable=0;top=0;left=0;bottom=0;right=0;align=left;spacingLeft=6;verticalAlign=top;" parent="27" vertex="1">
          <mxGeometry x="31.75" width="208.25" height="28" as="geometry">
            <mxRectangle width="208.25" height="28" as="alternateBounds" />
          </mxGeometry>
        </mxCell>
        <mxCell id="C-vyLk0tnHw3VtMMgP7b-9" value="" style="shape=partialRectangle;collapsible=0;dropTarget=0;pointerEvents=0;points=[[0,0.5],[1,0.5]];portConstraint=eastwest;top=0;left=0;right=0;bottom=0;" parent="C-vyLk0tnHw3VtMMgP7b-2" vertex="1">
          <mxGeometry y="88" width="240" height="66" as="geometry" />
        </mxCell>
        <mxCell id="C-vyLk0tnHw3VtMMgP7b-10" value="" style="shape=partialRectangle;overflow=hidden;connectable=0;top=0;left=0;bottom=0;right=0;" parent="C-vyLk0tnHw3VtMMgP7b-9" vertex="1">
          <mxGeometry width="31.75" height="66" as="geometry">
            <mxRectangle width="31.75" height="66" as="alternateBounds" />
          </mxGeometry>
        </mxCell>
        <mxCell id="C-vyLk0tnHw3VtMMgP7b-11" value="first_name&#xa;last_name&#xa;character&#xa;role&#xa;" style="shape=partialRectangle;overflow=hidden;connectable=0;top=0;left=0;bottom=0;right=0;align=left;spacingLeft=6;verticalAlign=top;" parent="C-vyLk0tnHw3VtMMgP7b-9" vertex="1">
          <mxGeometry x="31.75" width="208.25" height="66" as="geometry">
            <mxRectangle width="208.25" height="66" as="alternateBounds" />
          </mxGeometry>
        </mxCell>
        <mxCell id="YFGoI8jdiH5YfzTE92s3-36" value="title" style="shape=table;startSize=22;container=1;collapsible=1;childLayout=tableLayout;fixedRows=1;rowLines=0;fontStyle=1;align=center;resizeLast=1;fillColor=#1ba1e2;strokeColor=#006EAF;fontColor=#ffffff;" parent="1" vertex="1">
          <mxGeometry x="586" y="-207" width="169.75" height="241" as="geometry" />
        </mxCell>
        <mxCell id="YFGoI8jdiH5YfzTE92s3-37" value="" style="shape=partialRectangle;collapsible=0;dropTarget=0;pointerEvents=0;points=[[0,0.5],[1,0.5]];portConstraint=eastwest;top=0;left=0;right=0;bottom=1;" parent="YFGoI8jdiH5YfzTE92s3-36" vertex="1">
          <mxGeometry y="22" width="169.75" height="32" as="geometry" />
        </mxCell>
        <mxCell id="YFGoI8jdiH5YfzTE92s3-38" value="PK" style="shape=partialRectangle;overflow=hidden;connectable=0;top=0;left=0;bottom=0;right=0;fontStyle=0;" parent="YFGoI8jdiH5YfzTE92s3-37" vertex="1">
          <mxGeometry width="30" height="32" as="geometry">
            <mxRectangle width="30" height="32" as="alternateBounds" />
          </mxGeometry>
        </mxCell>
        <mxCell id="YFGoI8jdiH5YfzTE92s3-39" value="title_id" style="shape=partialRectangle;overflow=hidden;connectable=0;top=0;left=0;bottom=0;right=0;align=left;spacingLeft=6;fontStyle=4;" parent="YFGoI8jdiH5YfzTE92s3-37" vertex="1">
          <mxGeometry x="30" width="139.75" height="32" as="geometry">
            <mxRectangle width="139.75" height="32" as="alternateBounds" />
          </mxGeometry>
        </mxCell>
        <mxCell id="YFGoI8jdiH5YfzTE92s3-40" value="" style="shape=partialRectangle;collapsible=0;dropTarget=0;pointerEvents=0;points=[[0,0.5],[1,0.5]];portConstraint=eastwest;top=0;left=0;right=0;bottom=0;" parent="YFGoI8jdiH5YfzTE92s3-36" vertex="1">
          <mxGeometry y="54" width="169.75" height="34" as="geometry" />
        </mxCell>
        <mxCell id="YFGoI8jdiH5YfzTE92s3-41" value="FK" style="shape=partialRectangle;overflow=hidden;connectable=0;top=0;left=0;bottom=0;right=0;" parent="YFGoI8jdiH5YfzTE92s3-40" vertex="1">
          <mxGeometry width="30" height="34" as="geometry">
            <mxRectangle width="30" height="34" as="alternateBounds" />
          </mxGeometry>
        </mxCell>
        <mxCell id="YFGoI8jdiH5YfzTE92s3-42" value="title - str" style="shape=partialRectangle;overflow=hidden;connectable=0;top=0;left=0;bottom=0;right=0;align=left;spacingLeft=6;" parent="YFGoI8jdiH5YfzTE92s3-40" vertex="1">
          <mxGeometry x="30" width="139.75" height="34" as="geometry">
            <mxRectangle width="139.75" height="34" as="alternateBounds" />
          </mxGeometry>
        </mxCell>
        <mxCell id="3" style="shape=partialRectangle;collapsible=0;dropTarget=0;pointerEvents=0;points=[[0,0.5],[1,0.5]];portConstraint=eastwest;top=0;left=0;right=0;bottom=0;" parent="YFGoI8jdiH5YfzTE92s3-36" vertex="1">
          <mxGeometry y="88" width="169.75" height="30" as="geometry" />
        </mxCell>
        <mxCell id="4" style="shape=partialRectangle;overflow=hidden;connectable=0;top=0;left=0;bottom=0;right=0;" parent="3" vertex="1">
          <mxGeometry width="30" height="30" as="geometry">
            <mxRectangle width="30" height="30" as="alternateBounds" />
          </mxGeometry>
        </mxCell>
        <mxCell id="5" value="type -str" style="shape=partialRectangle;overflow=hidden;connectable=0;top=0;left=0;bottom=0;right=0;align=left;spacingLeft=6;" parent="3" vertex="1">
          <mxGeometry x="30" width="139.75" height="30" as="geometry">
            <mxRectangle width="139.75" height="30" as="alternateBounds" />
          </mxGeometry>
        </mxCell>
        <mxCell id="6" style="shape=partialRectangle;collapsible=0;dropTarget=0;pointerEvents=0;points=[[0,0.5],[1,0.5]];portConstraint=eastwest;top=0;left=0;right=0;bottom=0;" parent="YFGoI8jdiH5YfzTE92s3-36" vertex="1">
          <mxGeometry y="118" width="169.75" height="30" as="geometry" />
        </mxCell>
        <mxCell id="7" style="shape=partialRectangle;overflow=hidden;connectable=0;top=0;left=0;bottom=0;right=0;" parent="6" vertex="1">
          <mxGeometry width="30" height="30" as="geometry">
            <mxRectangle width="30" height="30" as="alternateBounds" />
          </mxGeometry>
        </mxCell>
        <mxCell id="8" value="release_year - int" style="shape=partialRectangle;overflow=hidden;connectable=0;top=0;left=0;bottom=0;right=0;align=left;spacingLeft=6;" parent="6" vertex="1">
          <mxGeometry x="30" width="139.75" height="30" as="geometry">
            <mxRectangle width="139.75" height="30" as="alternateBounds" />
          </mxGeometry>
        </mxCell>
        <mxCell id="9" style="shape=partialRectangle;collapsible=0;dropTarget=0;pointerEvents=0;points=[[0,0.5],[1,0.5]];portConstraint=eastwest;top=0;left=0;right=0;bottom=0;" parent="YFGoI8jdiH5YfzTE92s3-36" vertex="1">
          <mxGeometry y="148" width="169.75" height="25" as="geometry" />
        </mxCell>
        <mxCell id="10" style="shape=partialRectangle;overflow=hidden;connectable=0;top=0;left=0;bottom=0;right=0;" parent="9" vertex="1">
          <mxGeometry width="30" height="25" as="geometry">
            <mxRectangle width="30" height="25" as="alternateBounds" />
          </mxGeometry>
        </mxCell>
        <mxCell id="11" value="age_certification - str" style="shape=partialRectangle;overflow=hidden;connectable=0;top=0;left=0;bottom=0;right=0;align=left;spacingLeft=6;" parent="9" vertex="1">
          <mxGeometry x="30" width="139.75" height="25" as="geometry">
            <mxRectangle width="139.75" height="25" as="alternateBounds" />
          </mxGeometry>
        </mxCell>
        <mxCell id="12" style="shape=partialRectangle;collapsible=0;dropTarget=0;pointerEvents=0;points=[[0,0.5],[1,0.5]];portConstraint=eastwest;top=0;left=0;right=0;bottom=0;" parent="YFGoI8jdiH5YfzTE92s3-36" vertex="1">
          <mxGeometry y="173" width="169.75" height="30" as="geometry" />
        </mxCell>
        <mxCell id="13" style="shape=partialRectangle;overflow=hidden;connectable=0;top=0;left=0;bottom=0;right=0;" parent="12" vertex="1">
          <mxGeometry width="30" height="30" as="geometry">
            <mxRectangle width="30" height="30" as="alternateBounds" />
          </mxGeometry>
        </mxCell>
        <mxCell id="14" value="runtime - int" style="shape=partialRectangle;overflow=hidden;connectable=0;top=0;left=0;bottom=0;right=0;align=left;spacingLeft=6;" parent="12" vertex="1">
          <mxGeometry x="30" width="139.75" height="30" as="geometry">
            <mxRectangle width="139.75" height="30" as="alternateBounds" />
          </mxGeometry>
        </mxCell>
        <mxCell id="18" style="shape=partialRectangle;collapsible=0;dropTarget=0;pointerEvents=0;points=[[0,0.5],[1,0.5]];portConstraint=eastwest;top=0;left=0;right=0;bottom=0;" parent="YFGoI8jdiH5YfzTE92s3-36" vertex="1">
          <mxGeometry y="203" width="169.75" height="30" as="geometry" />
        </mxCell>
        <mxCell id="19" style="shape=partialRectangle;overflow=hidden;connectable=0;top=0;left=0;bottom=0;right=0;" parent="18" vertex="1">
          <mxGeometry width="30" height="30" as="geometry">
            <mxRectangle width="30" height="30" as="alternateBounds" />
          </mxGeometry>
        </mxCell>
        <mxCell id="20" value="num_seasons - int" style="shape=partialRectangle;overflow=hidden;connectable=0;top=0;left=0;bottom=0;right=0;align=left;spacingLeft=6;" parent="18" vertex="1">
          <mxGeometry x="30" width="139.75" height="30" as="geometry">
            <mxRectangle width="139.75" height="30" as="alternateBounds" />
          </mxGeometry>
        </mxCell>
        <mxCell id="YFGoI8jdiH5YfzTE92s3-52" value="genre" style="shape=table;startSize=30;container=1;collapsible=1;childLayout=tableLayout;fixedRows=1;rowLines=0;fontStyle=1;align=center;resizeLast=1;fillColor=#1ba1e2;strokeColor=#006EAF;fontColor=#ffffff;" parent="1" vertex="1">
          <mxGeometry x="842" y="-224" width="159.75" height="100" as="geometry" />
        </mxCell>
        <mxCell id="YFGoI8jdiH5YfzTE92s3-53" value="" style="shape=partialRectangle;collapsible=0;dropTarget=0;pointerEvents=0;points=[[0,0.5],[1,0.5]];portConstraint=eastwest;top=0;left=0;right=0;bottom=1;" parent="YFGoI8jdiH5YfzTE92s3-52" vertex="1">
          <mxGeometry y="30" width="159.75" height="30" as="geometry" />
        </mxCell>
        <mxCell id="YFGoI8jdiH5YfzTE92s3-54" value="FK" style="shape=partialRectangle;overflow=hidden;connectable=0;top=0;left=0;bottom=0;right=0;fontStyle=0;" parent="YFGoI8jdiH5YfzTE92s3-53" vertex="1">
          <mxGeometry width="30" height="30" as="geometry">
            <mxRectangle width="30" height="30" as="alternateBounds" />
          </mxGeometry>
        </mxCell>
        <mxCell id="YFGoI8jdiH5YfzTE92s3-55" value="title_id" style="shape=partialRectangle;overflow=hidden;connectable=0;top=0;left=0;bottom=0;right=0;align=left;spacingLeft=6;fontStyle=4;" parent="YFGoI8jdiH5YfzTE92s3-53" vertex="1">
          <mxGeometry x="30" width="129.75" height="30" as="geometry">
            <mxRectangle width="129.75" height="30" as="alternateBounds" />
          </mxGeometry>
        </mxCell>
        <mxCell id="YFGoI8jdiH5YfzTE92s3-56" value="" style="shape=partialRectangle;collapsible=0;dropTarget=0;pointerEvents=0;points=[[0,0.5],[1,0.5]];portConstraint=eastwest;top=0;left=0;right=0;bottom=0;" parent="YFGoI8jdiH5YfzTE92s3-52" vertex="1">
          <mxGeometry y="60" width="159.75" height="30" as="geometry" />
        </mxCell>
        <mxCell id="YFGoI8jdiH5YfzTE92s3-57" value="" style="shape=partialRectangle;overflow=hidden;connectable=0;top=0;left=0;bottom=0;right=0;" parent="YFGoI8jdiH5YfzTE92s3-56" vertex="1">
          <mxGeometry width="30" height="30" as="geometry">
            <mxRectangle width="30" height="30" as="alternateBounds" />
          </mxGeometry>
        </mxCell>
        <mxCell id="YFGoI8jdiH5YfzTE92s3-58" value="genre - str" style="shape=partialRectangle;overflow=hidden;connectable=0;top=0;left=0;bottom=0;right=0;align=left;spacingLeft=6;" parent="YFGoI8jdiH5YfzTE92s3-56" vertex="1">
          <mxGeometry x="30" width="129.75" height="30" as="geometry">
            <mxRectangle width="129.75" height="30" as="alternateBounds" />
          </mxGeometry>
        </mxCell>
        <mxCell id="AO1zrGgT2cooBu88k1n--1" value="prod_country" style="shape=table;startSize=30;container=1;collapsible=1;childLayout=tableLayout;fixedRows=1;rowLines=0;fontStyle=1;align=center;resizeLast=1;fillColor=#1ba1e2;strokeColor=#006EAF;fontColor=#ffffff;" parent="1" vertex="1">
          <mxGeometry x="826" y="-103" width="159.75" height="110" as="geometry" />
        </mxCell>
        <mxCell id="AO1zrGgT2cooBu88k1n--2" value="" style="shape=partialRectangle;collapsible=0;dropTarget=0;pointerEvents=0;points=[[0,0.5],[1,0.5]];portConstraint=eastwest;top=0;left=0;right=0;bottom=1;" parent="AO1zrGgT2cooBu88k1n--1" vertex="1">
          <mxGeometry y="30" width="159.75" height="30" as="geometry" />
        </mxCell>
        <mxCell id="AO1zrGgT2cooBu88k1n--3" value="FK" style="shape=partialRectangle;overflow=hidden;connectable=0;top=0;left=0;bottom=0;right=0;fontStyle=0;" parent="AO1zrGgT2cooBu88k1n--2" vertex="1">
          <mxGeometry width="30" height="30" as="geometry">
            <mxRectangle width="30" height="30" as="alternateBounds" />
          </mxGeometry>
        </mxCell>
        <mxCell id="AO1zrGgT2cooBu88k1n--4" value="title_id" style="shape=partialRectangle;overflow=hidden;connectable=0;top=0;left=0;bottom=0;right=0;align=left;spacingLeft=6;fontStyle=4;" parent="AO1zrGgT2cooBu88k1n--2" vertex="1">
          <mxGeometry x="30" width="129.75" height="30" as="geometry">
            <mxRectangle width="129.75" height="30" as="alternateBounds" />
          </mxGeometry>
        </mxCell>
        <mxCell id="AO1zrGgT2cooBu88k1n--5" value="" style="shape=partialRectangle;collapsible=0;dropTarget=0;pointerEvents=0;points=[[0,0.5],[1,0.5]];portConstraint=eastwest;top=0;left=0;right=0;bottom=0;" parent="AO1zrGgT2cooBu88k1n--1" vertex="1">
          <mxGeometry y="60" width="159.75" height="30" as="geometry" />
        </mxCell>
        <mxCell id="AO1zrGgT2cooBu88k1n--6" value="" style="shape=partialRectangle;overflow=hidden;connectable=0;top=0;left=0;bottom=0;right=0;" parent="AO1zrGgT2cooBu88k1n--5" vertex="1">
          <mxGeometry width="30" height="30" as="geometry">
            <mxRectangle width="30" height="30" as="alternateBounds" />
          </mxGeometry>
        </mxCell>
        <mxCell id="AO1zrGgT2cooBu88k1n--7" value="country" style="shape=partialRectangle;overflow=hidden;connectable=0;top=0;left=0;bottom=0;right=0;align=left;spacingLeft=6;" parent="AO1zrGgT2cooBu88k1n--5" vertex="1">
          <mxGeometry x="30" width="129.75" height="30" as="geometry">
            <mxRectangle width="129.75" height="30" as="alternateBounds" />
          </mxGeometry>
        </mxCell>
        <mxCell id="AO1zrGgT2cooBu88k1n--8" value="" style="shape=partialRectangle;collapsible=0;dropTarget=0;pointerEvents=0;points=[[0,0.5],[1,0.5]];portConstraint=eastwest;top=0;left=0;right=0;bottom=0;" parent="AO1zrGgT2cooBu88k1n--1" vertex="1">
          <mxGeometry y="90" width="159.75" height="20" as="geometry" />
        </mxCell>
        <mxCell id="AO1zrGgT2cooBu88k1n--9" value="" style="shape=partialRectangle;overflow=hidden;connectable=0;top=0;left=0;bottom=0;right=0;" parent="AO1zrGgT2cooBu88k1n--8" vertex="1">
          <mxGeometry width="30" height="20" as="geometry">
            <mxRectangle width="30" height="20" as="alternateBounds" />
          </mxGeometry>
        </mxCell>
        <mxCell id="AO1zrGgT2cooBu88k1n--10" value="" style="shape=partialRectangle;overflow=hidden;connectable=0;top=0;left=0;bottom=0;right=0;align=left;spacingLeft=6;" parent="AO1zrGgT2cooBu88k1n--8" vertex="1">
          <mxGeometry x="30" width="129.75" height="20" as="geometry">
            <mxRectangle width="129.75" height="20" as="alternateBounds" />
          </mxGeometry>
        </mxCell>
        <mxCell id="YFGoI8jdiH5YfzTE92s3-62" value="" style="edgeStyle=entityRelationEdgeStyle;endArrow=ERzeroToMany;startArrow=ERoneToMany;endFill=1;startFill=0;entryX=1;entryY=0.5;entryDx=0;entryDy=0;exitX=0;exitY=0.5;exitDx=0;exitDy=0;" parent="1" source="YFGoI8jdiH5YfzTE92s3-53" target="YFGoI8jdiH5YfzTE92s3-37" edge="1">
          <mxGeometry width="100" height="100" relative="1" as="geometry">
            <mxPoint x="708" y="49" as="sourcePoint" />
            <mxPoint x="699" y="135" as="targetPoint" />
          </mxGeometry>
        </mxCell>
        <mxCell id="C-vyLk0tnHw3VtMMgP7b-12" value="" style="edgeStyle=entityRelationEdgeStyle;endArrow=ERzeroToMany;startArrow=ERoneToMany;endFill=1;startFill=0;exitX=0;exitY=0.5;exitDx=0;exitDy=0;entryX=1;entryY=0.5;entryDx=0;entryDy=0;" parent="1" source="AO1zrGgT2cooBu88k1n--2" target="YFGoI8jdiH5YfzTE92s3-37" edge="1">
          <mxGeometry width="100" height="100" relative="1" as="geometry">
            <mxPoint x="772" y="260.13" as="sourcePoint" />
            <mxPoint x="779" y="-153" as="targetPoint" />
          </mxGeometry>
        </mxCell>
        <mxCell id="30" value="" style="edgeStyle=entityRelationEdgeStyle;endArrow=ERzeroToMany;startArrow=ERoneToMany;endFill=1;startFill=0;exitX=0;exitY=0.5;exitDx=0;exitDy=0;" parent="1" source="27" target="YFGoI8jdiH5YfzTE92s3-37" edge="1">
          <mxGeometry width="100" height="100" relative="1" as="geometry">
            <mxPoint x="951" y="116" as="sourcePoint" />
            <mxPoint x="756.75" y="-273" as="targetPoint" />
          </mxGeometry>
        </mxCell>
        <mxCell id="32" value="best_movies_yearly" style="shape=table;startSize=22;container=1;collapsible=1;childLayout=tableLayout;fixedRows=1;rowLines=0;fontStyle=1;align=center;resizeLast=1;fillColor=#1ba1e2;strokeColor=#006EAF;fontColor=#ffffff;" parent="1" vertex="1">
          <mxGeometry x="263" y="-102" width="169.75" height="164" as="geometry" />
        </mxCell>
        <mxCell id="33" value="" style="shape=partialRectangle;collapsible=0;dropTarget=0;pointerEvents=0;points=[[0,0.5],[1,0.5]];portConstraint=eastwest;top=0;left=0;right=0;bottom=1;" parent="32" vertex="1">
          <mxGeometry y="22" width="169.75" height="32" as="geometry" />
        </mxCell>
        <mxCell id="34" value="PK" style="shape=partialRectangle;overflow=hidden;connectable=0;top=0;left=0;bottom=0;right=0;fontStyle=0;" parent="33" vertex="1">
          <mxGeometry width="32.75" height="32" as="geometry">
            <mxRectangle width="32.75" height="32" as="alternateBounds" />
          </mxGeometry>
        </mxCell>
        <mxCell id="35" value="title" style="shape=partialRectangle;overflow=hidden;connectable=0;top=0;left=0;bottom=0;right=0;align=left;spacingLeft=6;fontStyle=4;" parent="33" vertex="1">
          <mxGeometry x="32.75" width="137" height="32" as="geometry">
            <mxRectangle width="137" height="32" as="alternateBounds" />
          </mxGeometry>
        </mxCell>
        <mxCell id="48" style="shape=partialRectangle;collapsible=0;dropTarget=0;pointerEvents=0;points=[[0,0.5],[1,0.5]];portConstraint=eastwest;top=0;left=0;right=0;bottom=0;" parent="32" vertex="1">
          <mxGeometry y="54" width="169.75" height="30" as="geometry" />
        </mxCell>
        <mxCell id="49" style="shape=partialRectangle;overflow=hidden;connectable=0;top=0;left=0;bottom=0;right=0;" parent="48" vertex="1">
          <mxGeometry width="32.75" height="30" as="geometry">
            <mxRectangle width="32.75" height="30" as="alternateBounds" />
          </mxGeometry>
        </mxCell>
        <mxCell id="50" value="score - float" style="shape=partialRectangle;overflow=hidden;connectable=0;top=0;left=0;bottom=0;right=0;align=left;spacingLeft=6;" parent="48" vertex="1">
          <mxGeometry x="32.75" width="137" height="30" as="geometry">
            <mxRectangle width="137" height="30" as="alternateBounds" />
          </mxGeometry>
        </mxCell>
        <mxCell id="51" style="shape=partialRectangle;collapsible=0;dropTarget=0;pointerEvents=0;points=[[0,0.5],[1,0.5]];portConstraint=eastwest;top=0;left=0;right=0;bottom=0;" parent="32" vertex="1">
          <mxGeometry y="84" width="169.75" height="30" as="geometry" />
        </mxCell>
        <mxCell id="52" style="shape=partialRectangle;overflow=hidden;connectable=0;top=0;left=0;bottom=0;right=0;" parent="51" vertex="1">
          <mxGeometry width="32.75" height="30" as="geometry">
            <mxRectangle width="32.75" height="30" as="alternateBounds" />
          </mxGeometry>
        </mxCell>
        <mxCell id="53" value="main_genre - str" style="shape=partialRectangle;overflow=hidden;connectable=0;top=0;left=0;bottom=0;right=0;align=left;spacingLeft=6;" parent="51" vertex="1">
          <mxGeometry x="32.75" width="137" height="30" as="geometry">
            <mxRectangle width="137" height="30" as="alternateBounds" />
          </mxGeometry>
        </mxCell>
        <mxCell id="54" style="shape=partialRectangle;collapsible=0;dropTarget=0;pointerEvents=0;points=[[0,0.5],[1,0.5]];portConstraint=eastwest;top=0;left=0;right=0;bottom=0;" parent="32" vertex="1">
          <mxGeometry y="114" width="169.75" height="30" as="geometry" />
        </mxCell>
        <mxCell id="55" style="shape=partialRectangle;overflow=hidden;connectable=0;top=0;left=0;bottom=0;right=0;" parent="54" vertex="1">
          <mxGeometry width="32.75" height="30" as="geometry">
            <mxRectangle width="32.75" height="30" as="alternateBounds" />
          </mxGeometry>
        </mxCell>
        <mxCell id="56" value="main_prod_country - str" style="shape=partialRectangle;overflow=hidden;connectable=0;top=0;left=0;bottom=0;right=0;align=left;spacingLeft=6;" parent="54" vertex="1">
          <mxGeometry x="32.75" width="137" height="30" as="geometry">
            <mxRectangle width="137" height="30" as="alternateBounds" />
          </mxGeometry>
        </mxCell>
        <mxCell id="60" style="shape=partialRectangle;collapsible=0;dropTarget=0;pointerEvents=0;points=[[0,0.5],[1,0.5]];portConstraint=eastwest;top=0;left=0;right=0;bottom=0;" parent="32" vertex="1">
          <mxGeometry y="144" width="169.75" height="20" as="geometry" />
        </mxCell>
        <mxCell id="61" style="shape=partialRectangle;overflow=hidden;connectable=0;top=0;left=0;bottom=0;right=0;" parent="60" vertex="1">
          <mxGeometry width="32.75" height="20" as="geometry">
            <mxRectangle width="32.75" height="20" as="alternateBounds" />
          </mxGeometry>
        </mxCell>
        <mxCell id="62" style="shape=partialRectangle;overflow=hidden;connectable=0;top=0;left=0;bottom=0;right=0;align=left;spacingLeft=6;" parent="60" vertex="1">
          <mxGeometry x="32.75" width="137" height="20" as="geometry">
            <mxRectangle width="137" height="20" as="alternateBounds" />
          </mxGeometry>
        </mxCell>
        <mxCell id="63" value="" style="edgeStyle=entityRelationEdgeStyle;endArrow=ERzeroToMany;startArrow=ERoneToMany;endFill=1;startFill=0;exitX=0;exitY=0.5;exitDx=0;exitDy=0;" parent="1" source="YFGoI8jdiH5YfzTE92s3-40" target="33" edge="1">
          <mxGeometry width="100" height="100" relative="1" as="geometry">
            <mxPoint x="852" y="-169" as="sourcePoint" />
            <mxPoint x="766.75" y="-62" as="targetPoint" />
          </mxGeometry>
        </mxCell>
        <mxCell id="64" value="best_movies" style="shape=table;startSize=22;container=1;collapsible=1;childLayout=tableLayout;fixedRows=1;rowLines=0;fontStyle=1;align=center;resizeLast=1;fillColor=#1ba1e2;strokeColor=#006EAF;fontColor=#ffffff;" parent="1" vertex="1">
          <mxGeometry x="246" y="-341" width="186.75" height="168.75" as="geometry" />
        </mxCell>
        <mxCell id="65" value="" style="shape=partialRectangle;collapsible=0;dropTarget=0;pointerEvents=0;points=[[0,0.5],[1,0.5]];portConstraint=eastwest;top=0;left=0;right=0;bottom=1;" parent="64" vertex="1">
          <mxGeometry y="22" width="186.75" height="32" as="geometry" />
        </mxCell>
        <mxCell id="66" value="PK" style="shape=partialRectangle;overflow=hidden;connectable=0;top=0;left=0;bottom=0;right=0;fontStyle=0;" parent="65" vertex="1">
          <mxGeometry width="32.75" height="32" as="geometry">
            <mxRectangle width="32.75" height="32" as="alternateBounds" />
          </mxGeometry>
        </mxCell>
        <mxCell id="67" value="title" style="shape=partialRectangle;overflow=hidden;connectable=0;top=0;left=0;bottom=0;right=0;align=left;spacingLeft=6;fontStyle=4;" parent="65" vertex="1">
          <mxGeometry x="32.75" width="154" height="32" as="geometry">
            <mxRectangle width="154" height="32" as="alternateBounds" />
          </mxGeometry>
        </mxCell>
        <mxCell id="71" style="shape=partialRectangle;collapsible=0;dropTarget=0;pointerEvents=0;points=[[0,0.5],[1,0.5]];portConstraint=eastwest;top=0;left=0;right=0;bottom=0;" parent="64" vertex="1">
          <mxGeometry y="54" width="186.75" height="30" as="geometry" />
        </mxCell>
        <mxCell id="72" style="shape=partialRectangle;overflow=hidden;connectable=0;top=0;left=0;bottom=0;right=0;" parent="71" vertex="1">
          <mxGeometry width="32.75" height="30" as="geometry">
            <mxRectangle width="32.75" height="30" as="alternateBounds" />
          </mxGeometry>
        </mxCell>
        <mxCell id="73" value="score - float" style="shape=partialRectangle;overflow=hidden;connectable=0;top=0;left=0;bottom=0;right=0;align=left;spacingLeft=6;" parent="71" vertex="1">
          <mxGeometry x="32.75" width="154" height="30" as="geometry">
            <mxRectangle width="154" height="30" as="alternateBounds" />
          </mxGeometry>
        </mxCell>
        <mxCell id="74" style="shape=partialRectangle;collapsible=0;dropTarget=0;pointerEvents=0;points=[[0,0.5],[1,0.5]];portConstraint=eastwest;top=0;left=0;right=0;bottom=0;" parent="64" vertex="1">
          <mxGeometry y="84" width="186.75" height="30" as="geometry" />
        </mxCell>
        <mxCell id="75" style="shape=partialRectangle;overflow=hidden;connectable=0;top=0;left=0;bottom=0;right=0;" parent="74" vertex="1">
          <mxGeometry width="32.75" height="30" as="geometry">
            <mxRectangle width="32.75" height="30" as="alternateBounds" />
          </mxGeometry>
        </mxCell>
        <mxCell id="76" value="main_genre - str" style="shape=partialRectangle;overflow=hidden;connectable=0;top=0;left=0;bottom=0;right=0;align=left;spacingLeft=6;" parent="74" vertex="1">
          <mxGeometry x="32.75" width="154" height="30" as="geometry">
            <mxRectangle width="154" height="30" as="alternateBounds" />
          </mxGeometry>
        </mxCell>
        <mxCell id="77" style="shape=partialRectangle;collapsible=0;dropTarget=0;pointerEvents=0;points=[[0,0.5],[1,0.5]];portConstraint=eastwest;top=0;left=0;right=0;bottom=0;" parent="64" vertex="1">
          <mxGeometry y="114" width="186.75" height="27" as="geometry" />
        </mxCell>
        <mxCell id="78" style="shape=partialRectangle;overflow=hidden;connectable=0;top=0;left=0;bottom=0;right=0;" parent="77" vertex="1">
          <mxGeometry width="32.75" height="27" as="geometry">
            <mxRectangle width="32.75" height="27" as="alternateBounds" />
          </mxGeometry>
        </mxCell>
        <mxCell id="79" value="num_votes - int" style="shape=partialRectangle;overflow=hidden;connectable=0;top=0;left=0;bottom=0;right=0;align=left;spacingLeft=6;" parent="77" vertex="1">
          <mxGeometry x="32.75" width="154" height="27" as="geometry">
            <mxRectangle width="154" height="27" as="alternateBounds" />
          </mxGeometry>
        </mxCell>
        <mxCell id="83" style="shape=partialRectangle;collapsible=0;dropTarget=0;pointerEvents=0;points=[[0,0.5],[1,0.5]];portConstraint=eastwest;top=0;left=0;right=0;bottom=0;" parent="64" vertex="1">
          <mxGeometry y="141" width="186.75" height="20" as="geometry" />
        </mxCell>
        <mxCell id="84" style="shape=partialRectangle;overflow=hidden;connectable=0;top=0;left=0;bottom=0;right=0;" parent="83" vertex="1">
          <mxGeometry width="32.75" height="20" as="geometry">
            <mxRectangle width="32.75" height="20" as="alternateBounds" />
          </mxGeometry>
        </mxCell>
        <mxCell id="85" value="main_prod_country - str" style="shape=partialRectangle;overflow=hidden;connectable=0;top=0;left=0;bottom=0;right=0;align=left;spacingLeft=6;" parent="83" vertex="1">
          <mxGeometry x="32.75" width="154" height="20" as="geometry">
            <mxRectangle width="154" height="20" as="alternateBounds" />
          </mxGeometry>
        </mxCell>
        <mxCell id="90" value="" style="edgeStyle=entityRelationEdgeStyle;endArrow=ERzeroToMany;startArrow=ERoneToMany;endFill=1;startFill=0;exitX=0;exitY=0.5;exitDx=0;exitDy=0;" parent="1" source="YFGoI8jdiH5YfzTE92s3-40" target="65" edge="1">
          <mxGeometry width="100" height="100" relative="1" as="geometry">
            <mxPoint x="597" y="-29" as="sourcePoint" />
            <mxPoint x="573" y="-196" as="targetPoint" />
          </mxGeometry>
        </mxCell>
        <mxCell id="91" value="best_shows_yearly" style="shape=table;startSize=22;container=1;collapsible=1;childLayout=tableLayout;fixedRows=1;rowLines=0;fontStyle=1;align=center;resizeLast=1;fillColor=#1ba1e2;strokeColor=#006EAF;fontColor=#ffffff;" parent="1" vertex="1">
          <mxGeometry x="271" y="92" width="169.75" height="172" as="geometry" />
        </mxCell>
        <mxCell id="92" value="" style="shape=partialRectangle;collapsible=0;dropTarget=0;pointerEvents=0;points=[[0,0.5],[1,0.5]];portConstraint=eastwest;top=0;left=0;right=0;bottom=1;" parent="91" vertex="1">
          <mxGeometry y="22" width="169.75" height="32" as="geometry" />
        </mxCell>
        <mxCell id="93" value="PK" style="shape=partialRectangle;overflow=hidden;connectable=0;top=0;left=0;bottom=0;right=0;fontStyle=0;" parent="92" vertex="1">
          <mxGeometry width="32.75" height="32" as="geometry">
            <mxRectangle width="32.75" height="32" as="alternateBounds" />
          </mxGeometry>
        </mxCell>
        <mxCell id="94" value="title" style="shape=partialRectangle;overflow=hidden;connectable=0;top=0;left=0;bottom=0;right=0;align=left;spacingLeft=6;fontStyle=4;" parent="92" vertex="1">
          <mxGeometry x="32.75" width="137" height="32" as="geometry">
            <mxRectangle width="137" height="32" as="alternateBounds" />
          </mxGeometry>
        </mxCell>
        <mxCell id="98" style="shape=partialRectangle;collapsible=0;dropTarget=0;pointerEvents=0;points=[[0,0.5],[1,0.5]];portConstraint=eastwest;top=0;left=0;right=0;bottom=0;" parent="91" vertex="1">
          <mxGeometry y="54" width="169.75" height="30" as="geometry" />
        </mxCell>
        <mxCell id="99" style="shape=partialRectangle;overflow=hidden;connectable=0;top=0;left=0;bottom=0;right=0;" parent="98" vertex="1">
          <mxGeometry width="32.75" height="30" as="geometry">
            <mxRectangle width="32.75" height="30" as="alternateBounds" />
          </mxGeometry>
        </mxCell>
        <mxCell id="100" value="score - float" style="shape=partialRectangle;overflow=hidden;connectable=0;top=0;left=0;bottom=0;right=0;align=left;spacingLeft=6;" parent="98" vertex="1">
          <mxGeometry x="32.75" width="137" height="30" as="geometry">
            <mxRectangle width="137" height="30" as="alternateBounds" />
          </mxGeometry>
        </mxCell>
        <mxCell id="101" style="shape=partialRectangle;collapsible=0;dropTarget=0;pointerEvents=0;points=[[0,0.5],[1,0.5]];portConstraint=eastwest;top=0;left=0;right=0;bottom=0;" parent="91" vertex="1">
          <mxGeometry y="84" width="169.75" height="30" as="geometry" />
        </mxCell>
        <mxCell id="102" style="shape=partialRectangle;overflow=hidden;connectable=0;top=0;left=0;bottom=0;right=0;" parent="101" vertex="1">
          <mxGeometry width="32.75" height="30" as="geometry">
            <mxRectangle width="32.75" height="30" as="alternateBounds" />
          </mxGeometry>
        </mxCell>
        <mxCell id="103" value="main_genre - str" style="shape=partialRectangle;overflow=hidden;connectable=0;top=0;left=0;bottom=0;right=0;align=left;spacingLeft=6;" parent="101" vertex="1">
          <mxGeometry x="32.75" width="137" height="30" as="geometry">
            <mxRectangle width="137" height="30" as="alternateBounds" />
          </mxGeometry>
        </mxCell>
        <mxCell id="104" style="shape=partialRectangle;collapsible=0;dropTarget=0;pointerEvents=0;points=[[0,0.5],[1,0.5]];portConstraint=eastwest;top=0;left=0;right=0;bottom=0;" parent="91" vertex="1">
          <mxGeometry y="114" width="169.75" height="30" as="geometry" />
        </mxCell>
        <mxCell id="105" style="shape=partialRectangle;overflow=hidden;connectable=0;top=0;left=0;bottom=0;right=0;" parent="104" vertex="1">
          <mxGeometry width="32.75" height="30" as="geometry">
            <mxRectangle width="32.75" height="30" as="alternateBounds" />
          </mxGeometry>
        </mxCell>
        <mxCell id="106" value="main_prod_country - str" style="shape=partialRectangle;overflow=hidden;connectable=0;top=0;left=0;bottom=0;right=0;align=left;spacingLeft=6;" parent="104" vertex="1">
          <mxGeometry x="32.75" width="137" height="30" as="geometry">
            <mxRectangle width="137" height="30" as="alternateBounds" />
          </mxGeometry>
        </mxCell>
        <mxCell id="110" style="shape=partialRectangle;collapsible=0;dropTarget=0;pointerEvents=0;points=[[0,0.5],[1,0.5]];portConstraint=eastwest;top=0;left=0;right=0;bottom=0;" parent="91" vertex="1">
          <mxGeometry y="144" width="169.75" height="20" as="geometry" />
        </mxCell>
        <mxCell id="111" style="shape=partialRectangle;overflow=hidden;connectable=0;top=0;left=0;bottom=0;right=0;" parent="110" vertex="1">
          <mxGeometry width="32.75" height="20" as="geometry">
            <mxRectangle width="32.75" height="20" as="alternateBounds" />
          </mxGeometry>
        </mxCell>
        <mxCell id="112" style="shape=partialRectangle;overflow=hidden;connectable=0;top=0;left=0;bottom=0;right=0;align=left;spacingLeft=6;" parent="110" vertex="1">
          <mxGeometry x="32.75" width="137" height="20" as="geometry">
            <mxRectangle width="137" height="20" as="alternateBounds" />
          </mxGeometry>
        </mxCell>
        <mxCell id="113" value="best_shows" style="shape=table;startSize=22;container=1;collapsible=1;childLayout=tableLayout;fixedRows=1;rowLines=0;fontStyle=1;align=center;resizeLast=1;fillColor=#1ba1e2;strokeColor=#006EAF;fontColor=#ffffff;" parent="1" vertex="1">
          <mxGeometry x="356" y="337" width="186.75" height="168.75" as="geometry" />
        </mxCell>
        <mxCell id="114" value="" style="shape=partialRectangle;collapsible=0;dropTarget=0;pointerEvents=0;points=[[0,0.5],[1,0.5]];portConstraint=eastwest;top=0;left=0;right=0;bottom=1;" parent="113" vertex="1">
          <mxGeometry y="22" width="186.75" height="32" as="geometry" />
        </mxCell>
        <mxCell id="115" value="PK" style="shape=partialRectangle;overflow=hidden;connectable=0;top=0;left=0;bottom=0;right=0;fontStyle=0;" parent="114" vertex="1">
          <mxGeometry width="32.75" height="32" as="geometry">
            <mxRectangle width="32.75" height="32" as="alternateBounds" />
          </mxGeometry>
        </mxCell>
        <mxCell id="116" value="title" style="shape=partialRectangle;overflow=hidden;connectable=0;top=0;left=0;bottom=0;right=0;align=left;spacingLeft=6;fontStyle=4;" parent="114" vertex="1">
          <mxGeometry x="32.75" width="154" height="32" as="geometry">
            <mxRectangle width="154" height="32" as="alternateBounds" />
          </mxGeometry>
        </mxCell>
        <mxCell id="120" style="shape=partialRectangle;collapsible=0;dropTarget=0;pointerEvents=0;points=[[0,0.5],[1,0.5]];portConstraint=eastwest;top=0;left=0;right=0;bottom=0;" parent="113" vertex="1">
          <mxGeometry y="54" width="186.75" height="30" as="geometry" />
        </mxCell>
        <mxCell id="121" style="shape=partialRectangle;overflow=hidden;connectable=0;top=0;left=0;bottom=0;right=0;" parent="120" vertex="1">
          <mxGeometry width="32.75" height="30" as="geometry">
            <mxRectangle width="32.75" height="30" as="alternateBounds" />
          </mxGeometry>
        </mxCell>
        <mxCell id="122" value="score - float" style="shape=partialRectangle;overflow=hidden;connectable=0;top=0;left=0;bottom=0;right=0;align=left;spacingLeft=6;" parent="120" vertex="1">
          <mxGeometry x="32.75" width="154" height="30" as="geometry">
            <mxRectangle width="154" height="30" as="alternateBounds" />
          </mxGeometry>
        </mxCell>
        <mxCell id="123" style="shape=partialRectangle;collapsible=0;dropTarget=0;pointerEvents=0;points=[[0,0.5],[1,0.5]];portConstraint=eastwest;top=0;left=0;right=0;bottom=0;" parent="113" vertex="1">
          <mxGeometry y="84" width="186.75" height="30" as="geometry" />
        </mxCell>
        <mxCell id="124" style="shape=partialRectangle;overflow=hidden;connectable=0;top=0;left=0;bottom=0;right=0;" parent="123" vertex="1">
          <mxGeometry width="32.75" height="30" as="geometry">
            <mxRectangle width="32.75" height="30" as="alternateBounds" />
          </mxGeometry>
        </mxCell>
        <mxCell id="125" value="main_genre - str" style="shape=partialRectangle;overflow=hidden;connectable=0;top=0;left=0;bottom=0;right=0;align=left;spacingLeft=6;" parent="123" vertex="1">
          <mxGeometry x="32.75" width="154" height="30" as="geometry">
            <mxRectangle width="154" height="30" as="alternateBounds" />
          </mxGeometry>
        </mxCell>
        <mxCell id="126" style="shape=partialRectangle;collapsible=0;dropTarget=0;pointerEvents=0;points=[[0,0.5],[1,0.5]];portConstraint=eastwest;top=0;left=0;right=0;bottom=0;" parent="113" vertex="1">
          <mxGeometry y="114" width="186.75" height="27" as="geometry" />
        </mxCell>
        <mxCell id="127" style="shape=partialRectangle;overflow=hidden;connectable=0;top=0;left=0;bottom=0;right=0;" parent="126" vertex="1">
          <mxGeometry width="32.75" height="27" as="geometry">
            <mxRectangle width="32.75" height="27" as="alternateBounds" />
          </mxGeometry>
        </mxCell>
        <mxCell id="128" value="num_votes - int" style="shape=partialRectangle;overflow=hidden;connectable=0;top=0;left=0;bottom=0;right=0;align=left;spacingLeft=6;" parent="126" vertex="1">
          <mxGeometry x="32.75" width="154" height="27" as="geometry">
            <mxRectangle width="154" height="27" as="alternateBounds" />
          </mxGeometry>
        </mxCell>
        <mxCell id="132" style="shape=partialRectangle;collapsible=0;dropTarget=0;pointerEvents=0;points=[[0,0.5],[1,0.5]];portConstraint=eastwest;top=0;left=0;right=0;bottom=0;" parent="113" vertex="1">
          <mxGeometry y="141" width="186.75" height="20" as="geometry" />
        </mxCell>
        <mxCell id="133" style="shape=partialRectangle;overflow=hidden;connectable=0;top=0;left=0;bottom=0;right=0;" parent="132" vertex="1">
          <mxGeometry width="32.75" height="20" as="geometry">
            <mxRectangle width="32.75" height="20" as="alternateBounds" />
          </mxGeometry>
        </mxCell>
        <mxCell id="134" value="main_prod_country - str" style="shape=partialRectangle;overflow=hidden;connectable=0;top=0;left=0;bottom=0;right=0;align=left;spacingLeft=6;" parent="132" vertex="1">
          <mxGeometry x="32.75" width="154" height="20" as="geometry">
            <mxRectangle width="154" height="20" as="alternateBounds" />
          </mxGeometry>
        </mxCell>
        <mxCell id="138" value="" style="edgeStyle=entityRelationEdgeStyle;endArrow=ERzeroToMany;startArrow=ERoneToMany;endFill=1;startFill=0;exitX=0;exitY=0.5;exitDx=0;exitDy=0;" parent="1" source="YFGoI8jdiH5YfzTE92s3-40" target="92" edge="1">
          <mxGeometry width="100" height="100" relative="1" as="geometry">
            <mxPoint x="596" y="-126" as="sourcePoint" />
            <mxPoint x="503.75" y="-290" as="targetPoint" />
          </mxGeometry>
        </mxCell>
        <mxCell id="139" value="" style="edgeStyle=entityRelationEdgeStyle;endArrow=ERzeroToMany;startArrow=ERoneToMany;endFill=1;startFill=0;exitX=1;exitY=0.5;exitDx=0;exitDy=0;entryX=0;entryY=0.5;entryDx=0;entryDy=0;" parent="1" source="114" edge="1" target="YFGoI8jdiH5YfzTE92s3-40">
          <mxGeometry width="100" height="100" relative="1" as="geometry">
            <mxPoint x="1306.4427500000002" y="192.00800000000004" as="sourcePoint" />
            <mxPoint x="1252" y="-207" as="targetPoint" />
          </mxGeometry>
        </mxCell>
        <mxCell id="S2tQENDXbDARH6V6zAQ_-139" value="fact_session" style="shape=table;startSize=15;container=1;collapsible=1;childLayout=tableLayout;fixedRows=1;rowLines=0;fontStyle=1;align=center;resizeLast=1;fillColor=#1ba1e2;strokeColor=#006EAF;fontColor=#ffffff;" vertex="1" parent="1">
          <mxGeometry x="1852" y="-209" width="221.75" height="184" as="geometry" />
        </mxCell>
        <mxCell id="S2tQENDXbDARH6V6zAQ_-143" value="" style="shape=partialRectangle;collapsible=0;dropTarget=0;pointerEvents=0;points=[[0,0.5],[1,0.5]];portConstraint=eastwest;top=0;left=0;right=0;bottom=0;" vertex="1" parent="S2tQENDXbDARH6V6zAQ_-139">
          <mxGeometry y="15" width="221.75" height="34" as="geometry" />
        </mxCell>
        <mxCell id="S2tQENDXbDARH6V6zAQ_-144" value="" style="shape=partialRectangle;overflow=hidden;connectable=0;top=0;left=0;bottom=0;right=0;" vertex="1" parent="S2tQENDXbDARH6V6zAQ_-143">
          <mxGeometry width="30" height="34" as="geometry">
            <mxRectangle width="30" height="34" as="alternateBounds" />
          </mxGeometry>
        </mxCell>
        <mxCell id="S2tQENDXbDARH6V6zAQ_-145" value="start_timestamp - int" style="shape=partialRectangle;overflow=hidden;connectable=0;top=0;left=0;bottom=0;right=0;align=left;spacingLeft=6;" vertex="1" parent="S2tQENDXbDARH6V6zAQ_-143">
          <mxGeometry x="30" width="191.75" height="34" as="geometry">
            <mxRectangle width="191.75" height="34" as="alternateBounds" />
          </mxGeometry>
        </mxCell>
        <mxCell id="S2tQENDXbDARH6V6zAQ_-146" style="shape=partialRectangle;collapsible=0;dropTarget=0;pointerEvents=0;points=[[0,0.5],[1,0.5]];portConstraint=eastwest;top=0;left=0;right=0;bottom=0;" vertex="1" parent="S2tQENDXbDARH6V6zAQ_-139">
          <mxGeometry y="49" width="221.75" height="30" as="geometry" />
        </mxCell>
        <mxCell id="S2tQENDXbDARH6V6zAQ_-147" value="" style="shape=partialRectangle;overflow=hidden;connectable=0;top=0;left=0;bottom=0;right=0;" vertex="1" parent="S2tQENDXbDARH6V6zAQ_-146">
          <mxGeometry width="30" height="30" as="geometry">
            <mxRectangle width="30" height="30" as="alternateBounds" />
          </mxGeometry>
        </mxCell>
        <mxCell id="S2tQENDXbDARH6V6zAQ_-148" value="position - int" style="shape=partialRectangle;overflow=hidden;connectable=0;top=0;left=0;bottom=0;right=0;align=left;spacingLeft=6;" vertex="1" parent="S2tQENDXbDARH6V6zAQ_-146">
          <mxGeometry x="30" width="191.75" height="30" as="geometry">
            <mxRectangle width="191.75" height="30" as="alternateBounds" />
          </mxGeometry>
        </mxCell>
        <mxCell id="S2tQENDXbDARH6V6zAQ_-149" style="shape=partialRectangle;collapsible=0;dropTarget=0;pointerEvents=0;points=[[0,0.5],[1,0.5]];portConstraint=eastwest;top=0;left=0;right=0;bottom=0;" vertex="1" parent="S2tQENDXbDARH6V6zAQ_-139">
          <mxGeometry y="79" width="221.75" height="30" as="geometry" />
        </mxCell>
        <mxCell id="S2tQENDXbDARH6V6zAQ_-150" value="FK" style="shape=partialRectangle;overflow=hidden;connectable=0;top=0;left=0;bottom=0;right=0;" vertex="1" parent="S2tQENDXbDARH6V6zAQ_-149">
          <mxGeometry width="30" height="30" as="geometry">
            <mxRectangle width="30" height="30" as="alternateBounds" />
          </mxGeometry>
        </mxCell>
        <mxCell id="S2tQENDXbDARH6V6zAQ_-151" value="title_id - int" style="shape=partialRectangle;overflow=hidden;connectable=0;top=0;left=0;bottom=0;right=0;align=left;spacingLeft=6;" vertex="1" parent="S2tQENDXbDARH6V6zAQ_-149">
          <mxGeometry x="30" width="191.75" height="30" as="geometry">
            <mxRectangle width="191.75" height="30" as="alternateBounds" />
          </mxGeometry>
        </mxCell>
        <mxCell id="S2tQENDXbDARH6V6zAQ_-152" style="shape=partialRectangle;collapsible=0;dropTarget=0;pointerEvents=0;points=[[0,0.5],[1,0.5]];portConstraint=eastwest;top=0;left=0;right=0;bottom=0;" vertex="1" parent="S2tQENDXbDARH6V6zAQ_-139">
          <mxGeometry y="109" width="221.75" height="25" as="geometry" />
        </mxCell>
        <mxCell id="S2tQENDXbDARH6V6zAQ_-153" value="FK" style="shape=partialRectangle;overflow=hidden;connectable=0;top=0;left=0;bottom=0;right=0;" vertex="1" parent="S2tQENDXbDARH6V6zAQ_-152">
          <mxGeometry width="30" height="25" as="geometry">
            <mxRectangle width="30" height="25" as="alternateBounds" />
          </mxGeometry>
        </mxCell>
        <mxCell id="S2tQENDXbDARH6V6zAQ_-154" value="user_id - int" style="shape=partialRectangle;overflow=hidden;connectable=0;top=0;left=0;bottom=0;right=0;align=left;spacingLeft=6;" vertex="1" parent="S2tQENDXbDARH6V6zAQ_-152">
          <mxGeometry x="30" width="191.75" height="25" as="geometry">
            <mxRectangle width="191.75" height="25" as="alternateBounds" />
          </mxGeometry>
        </mxCell>
        <mxCell id="S2tQENDXbDARH6V6zAQ_-164" style="shape=partialRectangle;collapsible=0;dropTarget=0;pointerEvents=0;points=[[0,0.5],[1,0.5]];portConstraint=eastwest;top=0;left=0;right=0;bottom=0;" vertex="1" parent="S2tQENDXbDARH6V6zAQ_-139">
          <mxGeometry y="134" width="221.75" height="30" as="geometry" />
        </mxCell>
        <mxCell id="S2tQENDXbDARH6V6zAQ_-165" style="shape=partialRectangle;overflow=hidden;connectable=0;top=0;left=0;bottom=0;right=0;" vertex="1" parent="S2tQENDXbDARH6V6zAQ_-164">
          <mxGeometry width="30" height="30" as="geometry">
            <mxRectangle width="30" height="30" as="alternateBounds" />
          </mxGeometry>
        </mxCell>
        <mxCell id="S2tQENDXbDARH6V6zAQ_-166" style="shape=partialRectangle;overflow=hidden;connectable=0;top=0;left=0;bottom=0;right=0;align=left;spacingLeft=6;" vertex="1" parent="S2tQENDXbDARH6V6zAQ_-164">
          <mxGeometry x="30" width="191.75" height="30" as="geometry">
            <mxRectangle width="191.75" height="30" as="alternateBounds" />
          </mxGeometry>
        </mxCell>
        <mxCell id="S2tQENDXbDARH6V6zAQ_-167" style="shape=partialRectangle;collapsible=0;dropTarget=0;pointerEvents=0;points=[[0,0.5],[1,0.5]];portConstraint=eastwest;top=0;left=0;right=0;bottom=0;" vertex="1" parent="S2tQENDXbDARH6V6zAQ_-139">
          <mxGeometry y="164" width="221.75" height="20" as="geometry" />
        </mxCell>
        <mxCell id="S2tQENDXbDARH6V6zAQ_-168" style="shape=partialRectangle;overflow=hidden;connectable=0;top=0;left=0;bottom=0;right=0;" vertex="1" parent="S2tQENDXbDARH6V6zAQ_-167">
          <mxGeometry width="30" height="20" as="geometry">
            <mxRectangle width="30" height="20" as="alternateBounds" />
          </mxGeometry>
        </mxCell>
        <mxCell id="S2tQENDXbDARH6V6zAQ_-169" style="shape=partialRectangle;overflow=hidden;connectable=0;top=0;left=0;bottom=0;right=0;align=left;spacingLeft=6;" vertex="1" parent="S2tQENDXbDARH6V6zAQ_-167">
          <mxGeometry x="30" width="191.75" height="20" as="geometry">
            <mxRectangle width="191.75" height="20" as="alternateBounds" />
          </mxGeometry>
        </mxCell>
        <mxCell id="S2tQENDXbDARH6V6zAQ_-170" value="dim_user" style="shape=table;startSize=22;container=1;collapsible=1;childLayout=tableLayout;fixedRows=1;rowLines=0;fontStyle=1;align=center;resizeLast=1;fillColor=#1ba1e2;strokeColor=#006EAF;fontColor=#ffffff;" vertex="1" parent="1">
          <mxGeometry x="2188" y="-293.5" width="169.75" height="323" as="geometry" />
        </mxCell>
        <mxCell id="S2tQENDXbDARH6V6zAQ_-171" value="" style="shape=partialRectangle;collapsible=0;dropTarget=0;pointerEvents=0;points=[[0,0.5],[1,0.5]];portConstraint=eastwest;top=0;left=0;right=0;bottom=1;" vertex="1" parent="S2tQENDXbDARH6V6zAQ_-170">
          <mxGeometry y="22" width="169.75" height="32" as="geometry" />
        </mxCell>
        <mxCell id="S2tQENDXbDARH6V6zAQ_-172" value="PK" style="shape=partialRectangle;overflow=hidden;connectable=0;top=0;left=0;bottom=0;right=0;fontStyle=0;" vertex="1" parent="S2tQENDXbDARH6V6zAQ_-171">
          <mxGeometry width="30" height="32" as="geometry">
            <mxRectangle width="30" height="32" as="alternateBounds" />
          </mxGeometry>
        </mxCell>
        <mxCell id="S2tQENDXbDARH6V6zAQ_-173" value="user_id" style="shape=partialRectangle;overflow=hidden;connectable=0;top=0;left=0;bottom=0;right=0;align=left;spacingLeft=6;fontStyle=4;" vertex="1" parent="S2tQENDXbDARH6V6zAQ_-171">
          <mxGeometry x="30" width="139.75" height="32" as="geometry">
            <mxRectangle width="139.75" height="32" as="alternateBounds" />
          </mxGeometry>
        </mxCell>
        <mxCell id="S2tQENDXbDARH6V6zAQ_-174" value="" style="shape=partialRectangle;collapsible=0;dropTarget=0;pointerEvents=0;points=[[0,0.5],[1,0.5]];portConstraint=eastwest;top=0;left=0;right=0;bottom=0;" vertex="1" parent="S2tQENDXbDARH6V6zAQ_-170">
          <mxGeometry y="54" width="169.75" height="34" as="geometry" />
        </mxCell>
        <mxCell id="S2tQENDXbDARH6V6zAQ_-175" value="" style="shape=partialRectangle;overflow=hidden;connectable=0;top=0;left=0;bottom=0;right=0;" vertex="1" parent="S2tQENDXbDARH6V6zAQ_-174">
          <mxGeometry width="30" height="34" as="geometry">
            <mxRectangle width="30" height="34" as="alternateBounds" />
          </mxGeometry>
        </mxCell>
        <mxCell id="S2tQENDXbDARH6V6zAQ_-176" value="birth_date" style="shape=partialRectangle;overflow=hidden;connectable=0;top=0;left=0;bottom=0;right=0;align=left;spacingLeft=6;" vertex="1" parent="S2tQENDXbDARH6V6zAQ_-174">
          <mxGeometry x="30" width="139.75" height="34" as="geometry">
            <mxRectangle width="139.75" height="34" as="alternateBounds" />
          </mxGeometry>
        </mxCell>
        <mxCell id="S2tQENDXbDARH6V6zAQ_-177" style="shape=partialRectangle;collapsible=0;dropTarget=0;pointerEvents=0;points=[[0,0.5],[1,0.5]];portConstraint=eastwest;top=0;left=0;right=0;bottom=0;" vertex="1" parent="S2tQENDXbDARH6V6zAQ_-170">
          <mxGeometry y="88" width="169.75" height="30" as="geometry" />
        </mxCell>
        <mxCell id="S2tQENDXbDARH6V6zAQ_-178" style="shape=partialRectangle;overflow=hidden;connectable=0;top=0;left=0;bottom=0;right=0;" vertex="1" parent="S2tQENDXbDARH6V6zAQ_-177">
          <mxGeometry width="30" height="30" as="geometry">
            <mxRectangle width="30" height="30" as="alternateBounds" />
          </mxGeometry>
        </mxCell>
        <mxCell id="S2tQENDXbDARH6V6zAQ_-179" value="street_address" style="shape=partialRectangle;overflow=hidden;connectable=0;top=0;left=0;bottom=0;right=0;align=left;spacingLeft=6;" vertex="1" parent="S2tQENDXbDARH6V6zAQ_-177">
          <mxGeometry x="30" width="139.75" height="30" as="geometry">
            <mxRectangle width="139.75" height="30" as="alternateBounds" />
          </mxGeometry>
        </mxCell>
        <mxCell id="S2tQENDXbDARH6V6zAQ_-180" style="shape=partialRectangle;collapsible=0;dropTarget=0;pointerEvents=0;points=[[0,0.5],[1,0.5]];portConstraint=eastwest;top=0;left=0;right=0;bottom=0;" vertex="1" parent="S2tQENDXbDARH6V6zAQ_-170">
          <mxGeometry y="118" width="169.75" height="30" as="geometry" />
        </mxCell>
        <mxCell id="S2tQENDXbDARH6V6zAQ_-181" style="shape=partialRectangle;overflow=hidden;connectable=0;top=0;left=0;bottom=0;right=0;" vertex="1" parent="S2tQENDXbDARH6V6zAQ_-180">
          <mxGeometry width="30" height="30" as="geometry">
            <mxRectangle width="30" height="30" as="alternateBounds" />
          </mxGeometry>
        </mxCell>
        <mxCell id="S2tQENDXbDARH6V6zAQ_-182" value="postal_code" style="shape=partialRectangle;overflow=hidden;connectable=0;top=0;left=0;bottom=0;right=0;align=left;spacingLeft=6;" vertex="1" parent="S2tQENDXbDARH6V6zAQ_-180">
          <mxGeometry x="30" width="139.75" height="30" as="geometry">
            <mxRectangle width="139.75" height="30" as="alternateBounds" />
          </mxGeometry>
        </mxCell>
        <mxCell id="S2tQENDXbDARH6V6zAQ_-183" style="shape=partialRectangle;collapsible=0;dropTarget=0;pointerEvents=0;points=[[0,0.5],[1,0.5]];portConstraint=eastwest;top=0;left=0;right=0;bottom=0;" vertex="1" parent="S2tQENDXbDARH6V6zAQ_-170">
          <mxGeometry y="148" width="169.75" height="25" as="geometry" />
        </mxCell>
        <mxCell id="S2tQENDXbDARH6V6zAQ_-184" style="shape=partialRectangle;overflow=hidden;connectable=0;top=0;left=0;bottom=0;right=0;" vertex="1" parent="S2tQENDXbDARH6V6zAQ_-183">
          <mxGeometry width="30" height="25" as="geometry">
            <mxRectangle width="30" height="25" as="alternateBounds" />
          </mxGeometry>
        </mxCell>
        <mxCell id="S2tQENDXbDARH6V6zAQ_-185" value="city" style="shape=partialRectangle;overflow=hidden;connectable=0;top=0;left=0;bottom=0;right=0;align=left;spacingLeft=6;" vertex="1" parent="S2tQENDXbDARH6V6zAQ_-183">
          <mxGeometry x="30" width="139.75" height="25" as="geometry">
            <mxRectangle width="139.75" height="25" as="alternateBounds" />
          </mxGeometry>
        </mxCell>
        <mxCell id="S2tQENDXbDARH6V6zAQ_-186" style="shape=partialRectangle;collapsible=0;dropTarget=0;pointerEvents=0;points=[[0,0.5],[1,0.5]];portConstraint=eastwest;top=0;left=0;right=0;bottom=0;" vertex="1" parent="S2tQENDXbDARH6V6zAQ_-170">
          <mxGeometry y="173" width="169.75" height="30" as="geometry" />
        </mxCell>
        <mxCell id="S2tQENDXbDARH6V6zAQ_-187" style="shape=partialRectangle;overflow=hidden;connectable=0;top=0;left=0;bottom=0;right=0;" vertex="1" parent="S2tQENDXbDARH6V6zAQ_-186">
          <mxGeometry width="30" height="30" as="geometry">
            <mxRectangle width="30" height="30" as="alternateBounds" />
          </mxGeometry>
        </mxCell>
        <mxCell id="S2tQENDXbDARH6V6zAQ_-188" value="district" style="shape=partialRectangle;overflow=hidden;connectable=0;top=0;left=0;bottom=0;right=0;align=left;spacingLeft=6;" vertex="1" parent="S2tQENDXbDARH6V6zAQ_-186">
          <mxGeometry x="30" width="139.75" height="30" as="geometry">
            <mxRectangle width="139.75" height="30" as="alternateBounds" />
          </mxGeometry>
        </mxCell>
        <mxCell id="S2tQENDXbDARH6V6zAQ_-189" style="shape=partialRectangle;collapsible=0;dropTarget=0;pointerEvents=0;points=[[0,0.5],[1,0.5]];portConstraint=eastwest;top=0;left=0;right=0;bottom=0;" vertex="1" parent="S2tQENDXbDARH6V6zAQ_-170">
          <mxGeometry y="203" width="169.75" height="30" as="geometry" />
        </mxCell>
        <mxCell id="S2tQENDXbDARH6V6zAQ_-190" style="shape=partialRectangle;overflow=hidden;connectable=0;top=0;left=0;bottom=0;right=0;" vertex="1" parent="S2tQENDXbDARH6V6zAQ_-189">
          <mxGeometry width="30" height="30" as="geometry">
            <mxRectangle width="30" height="30" as="alternateBounds" />
          </mxGeometry>
        </mxCell>
        <mxCell id="S2tQENDXbDARH6V6zAQ_-191" value="country" style="shape=partialRectangle;overflow=hidden;connectable=0;top=0;left=0;bottom=0;right=0;align=left;spacingLeft=6;" vertex="1" parent="S2tQENDXbDARH6V6zAQ_-189">
          <mxGeometry x="30" width="139.75" height="30" as="geometry">
            <mxRectangle width="139.75" height="30" as="alternateBounds" />
          </mxGeometry>
        </mxCell>
        <mxCell id="S2tQENDXbDARH6V6zAQ_-192" style="shape=partialRectangle;collapsible=0;dropTarget=0;pointerEvents=0;points=[[0,0.5],[1,0.5]];portConstraint=eastwest;top=0;left=0;right=0;bottom=0;" vertex="1" parent="S2tQENDXbDARH6V6zAQ_-170">
          <mxGeometry y="233" width="169.75" height="30" as="geometry" />
        </mxCell>
        <mxCell id="S2tQENDXbDARH6V6zAQ_-193" style="shape=partialRectangle;overflow=hidden;connectable=0;top=0;left=0;bottom=0;right=0;" vertex="1" parent="S2tQENDXbDARH6V6zAQ_-192">
          <mxGeometry width="30" height="30" as="geometry">
            <mxRectangle width="30" height="30" as="alternateBounds" />
          </mxGeometry>
        </mxCell>
        <mxCell id="S2tQENDXbDARH6V6zAQ_-194" value="subscription_type" style="shape=partialRectangle;overflow=hidden;connectable=0;top=0;left=0;bottom=0;right=0;align=left;spacingLeft=6;" vertex="1" parent="S2tQENDXbDARH6V6zAQ_-192">
          <mxGeometry x="30" width="139.75" height="30" as="geometry">
            <mxRectangle width="139.75" height="30" as="alternateBounds" />
          </mxGeometry>
        </mxCell>
        <mxCell id="S2tQENDXbDARH6V6zAQ_-195" style="shape=partialRectangle;collapsible=0;dropTarget=0;pointerEvents=0;points=[[0,0.5],[1,0.5]];portConstraint=eastwest;top=0;left=0;right=0;bottom=0;" vertex="1" parent="S2tQENDXbDARH6V6zAQ_-170">
          <mxGeometry y="263" width="169.75" height="30" as="geometry" />
        </mxCell>
        <mxCell id="S2tQENDXbDARH6V6zAQ_-196" style="shape=partialRectangle;overflow=hidden;connectable=0;top=0;left=0;bottom=0;right=0;" vertex="1" parent="S2tQENDXbDARH6V6zAQ_-195">
          <mxGeometry width="30" height="30" as="geometry">
            <mxRectangle width="30" height="30" as="alternateBounds" />
          </mxGeometry>
        </mxCell>
        <mxCell id="S2tQENDXbDARH6V6zAQ_-197" style="shape=partialRectangle;overflow=hidden;connectable=0;top=0;left=0;bottom=0;right=0;align=left;spacingLeft=6;" vertex="1" parent="S2tQENDXbDARH6V6zAQ_-195">
          <mxGeometry x="30" width="139.75" height="30" as="geometry">
            <mxRectangle width="139.75" height="30" as="alternateBounds" />
          </mxGeometry>
        </mxCell>
        <mxCell id="S2tQENDXbDARH6V6zAQ_-198" style="shape=partialRectangle;collapsible=0;dropTarget=0;pointerEvents=0;points=[[0,0.5],[1,0.5]];portConstraint=eastwest;top=0;left=0;right=0;bottom=0;" vertex="1" parent="S2tQENDXbDARH6V6zAQ_-170">
          <mxGeometry y="293" width="169.75" height="30" as="geometry" />
        </mxCell>
        <mxCell id="S2tQENDXbDARH6V6zAQ_-199" style="shape=partialRectangle;overflow=hidden;connectable=0;top=0;left=0;bottom=0;right=0;" vertex="1" parent="S2tQENDXbDARH6V6zAQ_-198">
          <mxGeometry width="30" height="30" as="geometry">
            <mxRectangle width="30" height="30" as="alternateBounds" />
          </mxGeometry>
        </mxCell>
        <mxCell id="S2tQENDXbDARH6V6zAQ_-200" style="shape=partialRectangle;overflow=hidden;connectable=0;top=0;left=0;bottom=0;right=0;align=left;spacingLeft=6;" vertex="1" parent="S2tQENDXbDARH6V6zAQ_-198">
          <mxGeometry x="30" width="139.75" height="30" as="geometry">
            <mxRectangle width="139.75" height="30" as="alternateBounds" />
          </mxGeometry>
        </mxCell>
        <mxCell id="S2tQENDXbDARH6V6zAQ_-202" value="dim_title" style="shape=table;startSize=22;container=1;collapsible=1;childLayout=tableLayout;fixedRows=1;rowLines=0;fontStyle=1;align=center;resizeLast=1;fillColor=#1ba1e2;strokeColor=#006EAF;fontColor=#ffffff;" vertex="1" parent="1">
          <mxGeometry x="1560" y="-245.75" width="169.75" height="421" as="geometry" />
        </mxCell>
        <mxCell id="S2tQENDXbDARH6V6zAQ_-203" value="" style="shape=partialRectangle;collapsible=0;dropTarget=0;pointerEvents=0;points=[[0,0.5],[1,0.5]];portConstraint=eastwest;top=0;left=0;right=0;bottom=1;" vertex="1" parent="S2tQENDXbDARH6V6zAQ_-202">
          <mxGeometry y="22" width="169.75" height="32" as="geometry" />
        </mxCell>
        <mxCell id="S2tQENDXbDARH6V6zAQ_-204" value="PK" style="shape=partialRectangle;overflow=hidden;connectable=0;top=0;left=0;bottom=0;right=0;fontStyle=0;" vertex="1" parent="S2tQENDXbDARH6V6zAQ_-203">
          <mxGeometry width="30" height="32" as="geometry">
            <mxRectangle width="30" height="32" as="alternateBounds" />
          </mxGeometry>
        </mxCell>
        <mxCell id="S2tQENDXbDARH6V6zAQ_-205" value="title_id" style="shape=partialRectangle;overflow=hidden;connectable=0;top=0;left=0;bottom=0;right=0;align=left;spacingLeft=6;fontStyle=4;" vertex="1" parent="S2tQENDXbDARH6V6zAQ_-203">
          <mxGeometry x="30" width="139.75" height="32" as="geometry">
            <mxRectangle width="139.75" height="32" as="alternateBounds" />
          </mxGeometry>
        </mxCell>
        <mxCell id="S2tQENDXbDARH6V6zAQ_-206" value="" style="shape=partialRectangle;collapsible=0;dropTarget=0;pointerEvents=0;points=[[0,0.5],[1,0.5]];portConstraint=eastwest;top=0;left=0;right=0;bottom=0;" vertex="1" parent="S2tQENDXbDARH6V6zAQ_-202">
          <mxGeometry y="54" width="169.75" height="34" as="geometry" />
        </mxCell>
        <mxCell id="S2tQENDXbDARH6V6zAQ_-207" value="FK" style="shape=partialRectangle;overflow=hidden;connectable=0;top=0;left=0;bottom=0;right=0;" vertex="1" parent="S2tQENDXbDARH6V6zAQ_-206">
          <mxGeometry width="30" height="34" as="geometry">
            <mxRectangle width="30" height="34" as="alternateBounds" />
          </mxGeometry>
        </mxCell>
        <mxCell id="S2tQENDXbDARH6V6zAQ_-208" value="title - str" style="shape=partialRectangle;overflow=hidden;connectable=0;top=0;left=0;bottom=0;right=0;align=left;spacingLeft=6;" vertex="1" parent="S2tQENDXbDARH6V6zAQ_-206">
          <mxGeometry x="30" width="139.75" height="34" as="geometry">
            <mxRectangle width="139.75" height="34" as="alternateBounds" />
          </mxGeometry>
        </mxCell>
        <mxCell id="S2tQENDXbDARH6V6zAQ_-236" style="shape=partialRectangle;collapsible=0;dropTarget=0;pointerEvents=0;points=[[0,0.5],[1,0.5]];portConstraint=eastwest;top=0;left=0;right=0;bottom=0;" vertex="1" parent="S2tQENDXbDARH6V6zAQ_-202">
          <mxGeometry y="88" width="169.75" height="30" as="geometry" />
        </mxCell>
        <mxCell id="S2tQENDXbDARH6V6zAQ_-237" value="FK" style="shape=partialRectangle;overflow=hidden;connectable=0;top=0;left=0;bottom=0;right=0;" vertex="1" parent="S2tQENDXbDARH6V6zAQ_-236">
          <mxGeometry width="30" height="30" as="geometry">
            <mxRectangle width="30" height="30" as="alternateBounds" />
          </mxGeometry>
        </mxCell>
        <mxCell id="S2tQENDXbDARH6V6zAQ_-238" value="person_id" style="shape=partialRectangle;overflow=hidden;connectable=0;top=0;left=0;bottom=0;right=0;align=left;spacingLeft=6;" vertex="1" parent="S2tQENDXbDARH6V6zAQ_-236">
          <mxGeometry x="30" width="139.75" height="30" as="geometry">
            <mxRectangle width="139.75" height="30" as="alternateBounds" />
          </mxGeometry>
        </mxCell>
        <mxCell id="S2tQENDXbDARH6V6zAQ_-209" style="shape=partialRectangle;collapsible=0;dropTarget=0;pointerEvents=0;points=[[0,0.5],[1,0.5]];portConstraint=eastwest;top=0;left=0;right=0;bottom=0;" vertex="1" parent="S2tQENDXbDARH6V6zAQ_-202">
          <mxGeometry y="118" width="169.75" height="30" as="geometry" />
        </mxCell>
        <mxCell id="S2tQENDXbDARH6V6zAQ_-210" style="shape=partialRectangle;overflow=hidden;connectable=0;top=0;left=0;bottom=0;right=0;" vertex="1" parent="S2tQENDXbDARH6V6zAQ_-209">
          <mxGeometry width="30" height="30" as="geometry">
            <mxRectangle width="30" height="30" as="alternateBounds" />
          </mxGeometry>
        </mxCell>
        <mxCell id="S2tQENDXbDARH6V6zAQ_-211" value="type -str" style="shape=partialRectangle;overflow=hidden;connectable=0;top=0;left=0;bottom=0;right=0;align=left;spacingLeft=6;" vertex="1" parent="S2tQENDXbDARH6V6zAQ_-209">
          <mxGeometry x="30" width="139.75" height="30" as="geometry">
            <mxRectangle width="139.75" height="30" as="alternateBounds" />
          </mxGeometry>
        </mxCell>
        <mxCell id="S2tQENDXbDARH6V6zAQ_-212" style="shape=partialRectangle;collapsible=0;dropTarget=0;pointerEvents=0;points=[[0,0.5],[1,0.5]];portConstraint=eastwest;top=0;left=0;right=0;bottom=0;" vertex="1" parent="S2tQENDXbDARH6V6zAQ_-202">
          <mxGeometry y="148" width="169.75" height="30" as="geometry" />
        </mxCell>
        <mxCell id="S2tQENDXbDARH6V6zAQ_-213" style="shape=partialRectangle;overflow=hidden;connectable=0;top=0;left=0;bottom=0;right=0;" vertex="1" parent="S2tQENDXbDARH6V6zAQ_-212">
          <mxGeometry width="30" height="30" as="geometry">
            <mxRectangle width="30" height="30" as="alternateBounds" />
          </mxGeometry>
        </mxCell>
        <mxCell id="S2tQENDXbDARH6V6zAQ_-214" value="release_year - int" style="shape=partialRectangle;overflow=hidden;connectable=0;top=0;left=0;bottom=0;right=0;align=left;spacingLeft=6;" vertex="1" parent="S2tQENDXbDARH6V6zAQ_-212">
          <mxGeometry x="30" width="139.75" height="30" as="geometry">
            <mxRectangle width="139.75" height="30" as="alternateBounds" />
          </mxGeometry>
        </mxCell>
        <mxCell id="S2tQENDXbDARH6V6zAQ_-215" style="shape=partialRectangle;collapsible=0;dropTarget=0;pointerEvents=0;points=[[0,0.5],[1,0.5]];portConstraint=eastwest;top=0;left=0;right=0;bottom=0;" vertex="1" parent="S2tQENDXbDARH6V6zAQ_-202">
          <mxGeometry y="178" width="169.75" height="25" as="geometry" />
        </mxCell>
        <mxCell id="S2tQENDXbDARH6V6zAQ_-216" style="shape=partialRectangle;overflow=hidden;connectable=0;top=0;left=0;bottom=0;right=0;" vertex="1" parent="S2tQENDXbDARH6V6zAQ_-215">
          <mxGeometry width="30" height="25" as="geometry">
            <mxRectangle width="30" height="25" as="alternateBounds" />
          </mxGeometry>
        </mxCell>
        <mxCell id="S2tQENDXbDARH6V6zAQ_-217" value="age_certification - str" style="shape=partialRectangle;overflow=hidden;connectable=0;top=0;left=0;bottom=0;right=0;align=left;spacingLeft=6;" vertex="1" parent="S2tQENDXbDARH6V6zAQ_-215">
          <mxGeometry x="30" width="139.75" height="25" as="geometry">
            <mxRectangle width="139.75" height="25" as="alternateBounds" />
          </mxGeometry>
        </mxCell>
        <mxCell id="S2tQENDXbDARH6V6zAQ_-218" style="shape=partialRectangle;collapsible=0;dropTarget=0;pointerEvents=0;points=[[0,0.5],[1,0.5]];portConstraint=eastwest;top=0;left=0;right=0;bottom=0;" vertex="1" parent="S2tQENDXbDARH6V6zAQ_-202">
          <mxGeometry y="203" width="169.75" height="30" as="geometry" />
        </mxCell>
        <mxCell id="S2tQENDXbDARH6V6zAQ_-219" style="shape=partialRectangle;overflow=hidden;connectable=0;top=0;left=0;bottom=0;right=0;" vertex="1" parent="S2tQENDXbDARH6V6zAQ_-218">
          <mxGeometry width="30" height="30" as="geometry">
            <mxRectangle width="30" height="30" as="alternateBounds" />
          </mxGeometry>
        </mxCell>
        <mxCell id="S2tQENDXbDARH6V6zAQ_-220" value="runtime - int" style="shape=partialRectangle;overflow=hidden;connectable=0;top=0;left=0;bottom=0;right=0;align=left;spacingLeft=6;" vertex="1" parent="S2tQENDXbDARH6V6zAQ_-218">
          <mxGeometry x="30" width="139.75" height="30" as="geometry">
            <mxRectangle width="139.75" height="30" as="alternateBounds" />
          </mxGeometry>
        </mxCell>
        <mxCell id="S2tQENDXbDARH6V6zAQ_-221" style="shape=partialRectangle;collapsible=0;dropTarget=0;pointerEvents=0;points=[[0,0.5],[1,0.5]];portConstraint=eastwest;top=0;left=0;right=0;bottom=0;" vertex="1" parent="S2tQENDXbDARH6V6zAQ_-202">
          <mxGeometry y="233" width="169.75" height="30" as="geometry" />
        </mxCell>
        <mxCell id="S2tQENDXbDARH6V6zAQ_-222" style="shape=partialRectangle;overflow=hidden;connectable=0;top=0;left=0;bottom=0;right=0;" vertex="1" parent="S2tQENDXbDARH6V6zAQ_-221">
          <mxGeometry width="30" height="30" as="geometry">
            <mxRectangle width="30" height="30" as="alternateBounds" />
          </mxGeometry>
        </mxCell>
        <mxCell id="S2tQENDXbDARH6V6zAQ_-223" value="genre - str" style="shape=partialRectangle;overflow=hidden;connectable=0;top=0;left=0;bottom=0;right=0;align=left;spacingLeft=6;" vertex="1" parent="S2tQENDXbDARH6V6zAQ_-221">
          <mxGeometry x="30" width="139.75" height="30" as="geometry">
            <mxRectangle width="139.75" height="30" as="alternateBounds" />
          </mxGeometry>
        </mxCell>
        <mxCell id="S2tQENDXbDARH6V6zAQ_-224" style="shape=partialRectangle;collapsible=0;dropTarget=0;pointerEvents=0;points=[[0,0.5],[1,0.5]];portConstraint=eastwest;top=0;left=0;right=0;bottom=0;" vertex="1" parent="S2tQENDXbDARH6V6zAQ_-202">
          <mxGeometry y="263" width="169.75" height="30" as="geometry" />
        </mxCell>
        <mxCell id="S2tQENDXbDARH6V6zAQ_-225" style="shape=partialRectangle;overflow=hidden;connectable=0;top=0;left=0;bottom=0;right=0;" vertex="1" parent="S2tQENDXbDARH6V6zAQ_-224">
          <mxGeometry width="30" height="30" as="geometry">
            <mxRectangle width="30" height="30" as="alternateBounds" />
          </mxGeometry>
        </mxCell>
        <mxCell id="S2tQENDXbDARH6V6zAQ_-226" value="num_seasons - int" style="shape=partialRectangle;overflow=hidden;connectable=0;top=0;left=0;bottom=0;right=0;align=left;spacingLeft=6;" vertex="1" parent="S2tQENDXbDARH6V6zAQ_-224">
          <mxGeometry x="30" width="139.75" height="30" as="geometry">
            <mxRectangle width="139.75" height="30" as="alternateBounds" />
          </mxGeometry>
        </mxCell>
        <mxCell id="S2tQENDXbDARH6V6zAQ_-227" style="shape=partialRectangle;collapsible=0;dropTarget=0;pointerEvents=0;points=[[0,0.5],[1,0.5]];portConstraint=eastwest;top=0;left=0;right=0;bottom=0;" vertex="1" parent="S2tQENDXbDARH6V6zAQ_-202">
          <mxGeometry y="293" width="169.75" height="30" as="geometry" />
        </mxCell>
        <mxCell id="S2tQENDXbDARH6V6zAQ_-228" style="shape=partialRectangle;overflow=hidden;connectable=0;top=0;left=0;bottom=0;right=0;" vertex="1" parent="S2tQENDXbDARH6V6zAQ_-227">
          <mxGeometry width="30" height="30" as="geometry">
            <mxRectangle width="30" height="30" as="alternateBounds" />
          </mxGeometry>
        </mxCell>
        <mxCell id="S2tQENDXbDARH6V6zAQ_-229" value="prod_country - str" style="shape=partialRectangle;overflow=hidden;connectable=0;top=0;left=0;bottom=0;right=0;align=left;spacingLeft=6;" vertex="1" parent="S2tQENDXbDARH6V6zAQ_-227">
          <mxGeometry x="30" width="139.75" height="30" as="geometry">
            <mxRectangle width="139.75" height="30" as="alternateBounds" />
          </mxGeometry>
        </mxCell>
        <mxCell id="S2tQENDXbDARH6V6zAQ_-230" style="shape=partialRectangle;collapsible=0;dropTarget=0;pointerEvents=0;points=[[0,0.5],[1,0.5]];portConstraint=eastwest;top=0;left=0;right=0;bottom=0;" vertex="1" parent="S2tQENDXbDARH6V6zAQ_-202">
          <mxGeometry y="323" width="169.75" height="30" as="geometry" />
        </mxCell>
        <mxCell id="S2tQENDXbDARH6V6zAQ_-231" style="shape=partialRectangle;overflow=hidden;connectable=0;top=0;left=0;bottom=0;right=0;" vertex="1" parent="S2tQENDXbDARH6V6zAQ_-230">
          <mxGeometry width="30" height="30" as="geometry">
            <mxRectangle width="30" height="30" as="alternateBounds" />
          </mxGeometry>
        </mxCell>
        <mxCell id="S2tQENDXbDARH6V6zAQ_-232" value="genre - str" style="shape=partialRectangle;overflow=hidden;connectable=0;top=0;left=0;bottom=0;right=0;align=left;spacingLeft=6;" vertex="1" parent="S2tQENDXbDARH6V6zAQ_-230">
          <mxGeometry x="30" width="139.75" height="30" as="geometry">
            <mxRectangle width="139.75" height="30" as="alternateBounds" />
          </mxGeometry>
        </mxCell>
        <mxCell id="S2tQENDXbDARH6V6zAQ_-239" style="shape=partialRectangle;collapsible=0;dropTarget=0;pointerEvents=0;points=[[0,0.5],[1,0.5]];portConstraint=eastwest;top=0;left=0;right=0;bottom=0;" vertex="1" parent="S2tQENDXbDARH6V6zAQ_-202">
          <mxGeometry y="353" width="169.75" height="30" as="geometry" />
        </mxCell>
        <mxCell id="S2tQENDXbDARH6V6zAQ_-240" style="shape=partialRectangle;overflow=hidden;connectable=0;top=0;left=0;bottom=0;right=0;" vertex="1" parent="S2tQENDXbDARH6V6zAQ_-239">
          <mxGeometry width="30" height="30" as="geometry">
            <mxRectangle width="30" height="30" as="alternateBounds" />
          </mxGeometry>
        </mxCell>
        <mxCell id="S2tQENDXbDARH6V6zAQ_-241" style="shape=partialRectangle;overflow=hidden;connectable=0;top=0;left=0;bottom=0;right=0;align=left;spacingLeft=6;" vertex="1" parent="S2tQENDXbDARH6V6zAQ_-239">
          <mxGeometry x="30" width="139.75" height="30" as="geometry">
            <mxRectangle width="139.75" height="30" as="alternateBounds" />
          </mxGeometry>
        </mxCell>
        <mxCell id="S2tQENDXbDARH6V6zAQ_-242" style="shape=partialRectangle;collapsible=0;dropTarget=0;pointerEvents=0;points=[[0,0.5],[1,0.5]];portConstraint=eastwest;top=0;left=0;right=0;bottom=0;" vertex="1" parent="S2tQENDXbDARH6V6zAQ_-202">
          <mxGeometry y="383" width="169.75" height="30" as="geometry" />
        </mxCell>
        <mxCell id="S2tQENDXbDARH6V6zAQ_-243" style="shape=partialRectangle;overflow=hidden;connectable=0;top=0;left=0;bottom=0;right=0;" vertex="1" parent="S2tQENDXbDARH6V6zAQ_-242">
          <mxGeometry width="30" height="30" as="geometry">
            <mxRectangle width="30" height="30" as="alternateBounds" />
          </mxGeometry>
        </mxCell>
        <mxCell id="S2tQENDXbDARH6V6zAQ_-244" style="shape=partialRectangle;overflow=hidden;connectable=0;top=0;left=0;bottom=0;right=0;align=left;spacingLeft=6;" vertex="1" parent="S2tQENDXbDARH6V6zAQ_-242">
          <mxGeometry x="30" width="139.75" height="30" as="geometry">
            <mxRectangle width="139.75" height="30" as="alternateBounds" />
          </mxGeometry>
        </mxCell>
        <mxCell id="S2tQENDXbDARH6V6zAQ_-245" value="dim_credits" style="shape=table;startSize=30;container=1;collapsible=1;childLayout=tableLayout;fixedRows=1;rowLines=0;fontStyle=1;align=center;resizeLast=1;fillColor=#1ba1e2;strokeColor=#006EAF;fontColor=#ffffff;" vertex="1" parent="1">
          <mxGeometry x="1244" y="-144" width="240" height="154" as="geometry" />
        </mxCell>
        <mxCell id="S2tQENDXbDARH6V6zAQ_-246" value="" style="shape=partialRectangle;collapsible=0;dropTarget=0;pointerEvents=0;points=[[0,0.5],[1,0.5]];portConstraint=eastwest;top=0;left=0;right=0;bottom=1;" vertex="1" parent="S2tQENDXbDARH6V6zAQ_-245">
          <mxGeometry y="30" width="240" height="30" as="geometry" />
        </mxCell>
        <mxCell id="S2tQENDXbDARH6V6zAQ_-247" value="PK" style="shape=partialRectangle;overflow=hidden;connectable=0;top=0;left=0;bottom=0;right=0;fontStyle=1;" vertex="1" parent="S2tQENDXbDARH6V6zAQ_-246">
          <mxGeometry width="31.75" height="30" as="geometry">
            <mxRectangle width="31.75" height="30" as="alternateBounds" />
          </mxGeometry>
        </mxCell>
        <mxCell id="S2tQENDXbDARH6V6zAQ_-248" value="person_id" style="shape=partialRectangle;overflow=hidden;connectable=0;top=0;left=0;bottom=0;right=0;align=left;spacingLeft=6;fontStyle=5;" vertex="1" parent="S2tQENDXbDARH6V6zAQ_-246">
          <mxGeometry x="31.75" width="208.25" height="30" as="geometry">
            <mxRectangle width="208.25" height="30" as="alternateBounds" />
          </mxGeometry>
        </mxCell>
        <mxCell id="S2tQENDXbDARH6V6zAQ_-249" style="shape=partialRectangle;collapsible=0;dropTarget=0;pointerEvents=0;points=[[0,0.5],[1,0.5]];portConstraint=eastwest;top=0;left=0;right=0;bottom=0;" vertex="1" parent="S2tQENDXbDARH6V6zAQ_-245">
          <mxGeometry y="60" width="240" height="28" as="geometry" />
        </mxCell>
        <mxCell id="S2tQENDXbDARH6V6zAQ_-250" value="FK" style="shape=partialRectangle;overflow=hidden;connectable=0;top=0;left=0;bottom=0;right=0;" vertex="1" parent="S2tQENDXbDARH6V6zAQ_-249">
          <mxGeometry width="31.75" height="28" as="geometry">
            <mxRectangle width="31.75" height="28" as="alternateBounds" />
          </mxGeometry>
        </mxCell>
        <mxCell id="S2tQENDXbDARH6V6zAQ_-251" value="title_id" style="shape=partialRectangle;overflow=hidden;connectable=0;top=0;left=0;bottom=0;right=0;align=left;spacingLeft=6;verticalAlign=top;" vertex="1" parent="S2tQENDXbDARH6V6zAQ_-249">
          <mxGeometry x="31.75" width="208.25" height="28" as="geometry">
            <mxRectangle width="208.25" height="28" as="alternateBounds" />
          </mxGeometry>
        </mxCell>
        <mxCell id="S2tQENDXbDARH6V6zAQ_-252" value="" style="shape=partialRectangle;collapsible=0;dropTarget=0;pointerEvents=0;points=[[0,0.5],[1,0.5]];portConstraint=eastwest;top=0;left=0;right=0;bottom=0;" vertex="1" parent="S2tQENDXbDARH6V6zAQ_-245">
          <mxGeometry y="88" width="240" height="66" as="geometry" />
        </mxCell>
        <mxCell id="S2tQENDXbDARH6V6zAQ_-253" value="" style="shape=partialRectangle;overflow=hidden;connectable=0;top=0;left=0;bottom=0;right=0;" vertex="1" parent="S2tQENDXbDARH6V6zAQ_-252">
          <mxGeometry width="31.75" height="66" as="geometry">
            <mxRectangle width="31.75" height="66" as="alternateBounds" />
          </mxGeometry>
        </mxCell>
        <mxCell id="S2tQENDXbDARH6V6zAQ_-254" value="first_name&#xa;last_name&#xa;character&#xa;role&#xa;" style="shape=partialRectangle;overflow=hidden;connectable=0;top=0;left=0;bottom=0;right=0;align=left;spacingLeft=6;verticalAlign=top;" vertex="1" parent="S2tQENDXbDARH6V6zAQ_-252">
          <mxGeometry x="31.75" width="208.25" height="66" as="geometry">
            <mxRectangle width="208.25" height="66" as="alternateBounds" />
          </mxGeometry>
        </mxCell>
      </root>
    </mxGraphModel>
  </diagram>
</mxfile>
